<svg xmlns:xlink="http://www.w3.org/1999/xlink" version="1.1" class="highcharts-root" style="font-family:&quot;lucida grande&quot;, &quot;lucida sans unicode&quot;, arial, helvetica, sans-serif;font-size:12px;" xmlns="http://www.w3.org/2000/svg" width="1187" height="600"><desc>Created with Highstock 5.0.6</desc><defs><pattern id="highcharts-default-pattern-0" patternUnits="userSpaceOnUse" width="10" height="10"><path d="M 0 0 L 10 10 M 9 -1 L 11 1 M -1 9 L 1 11" stroke="#7cb5ec" stroke-width="2"></path></pattern><pattern id="highcharts-default-pattern-1" patternUnits="userSpaceOnUse" width="10" height="10"><path d="M 0 10 L 10 0 M -1 1 L 1 -1 M 9 11 L 11 9" stroke="#434348" stroke-width="2"></path></pattern><pattern id="highcharts-default-pattern-2" patternUnits="userSpaceOnUse" width="10" height="10"><path d="M 3 0 L 3 10 M 8 0 L 8 10" stroke="#90ed7d" stroke-width="2"></path></pattern><pattern id="highcharts-default-pattern-3" patternUnits="userSpaceOnUse" width="10" height="10"><path d="M 0 3 L 10 3 M 0 8 L 10 8" stroke="#f7a35c" stroke-width="2"></path></pattern><pattern id="highcharts-default-pattern-4" patternUnits="userSpaceOnUse" width="10" height="10"><path d="M 0 3 L 5 3 L 5 0 M 5 10 L 5 7 L 10 7" stroke="#8085e9" stroke-width="2"></path></pattern><pattern id="highcharts-default-pattern-5" patternUnits="userSpaceOnUse" width="10" height="10"><path d="M 3 3 L 8 3 L 8 8 L 3 8 Z" stroke="#f15c80" stroke-width="2"></path></pattern><pattern id="highcharts-default-pattern-6" patternUnits="userSpaceOnUse" width="10" height="10"><path d="M 5 5 m -4 0 a 4 4 0 1 1 8 0 a 4 4 0 1 1 -8 0" stroke="#e4d354" stroke-width="2"></path></pattern><pattern id="highcharts-default-pattern-7" patternUnits="userSpaceOnUse" width="10" height="10"><path d="M 10 3 L 5 3 L 5 0 M 5 10 L 5 7 L 0 7" stroke="#2b908f" stroke-width="2"></path></pattern><pattern id="highcharts-default-pattern-8" patternUnits="userSpaceOnUse" width="10" height="10"><path d="M 2 5 L 5 2 L 8 5 L 5 8 Z" stroke="#f45b5b" stroke-width="2"></path></pattern><pattern id="highcharts-default-pattern-9" patternUnits="userSpaceOnUse" width="10" height="10"><path d="M 0 0 L 5 10 L 10 0" stroke="#91e8e1" stroke-width="2"></path></pattern><clipPath id="highcharts-5zkhapu-7"><rect x="0" y="0" width="1096" height="477" fill="none"></rect></clipPath><clipPath id="highcharts-5zkhapu-8"><rect x="0" y="0" width="1096" height="477" fill="none"></rect></clipPath><clipPath id="highcharts-5zkhapu-9"><rect x="81" y="67" width="1096" height="477" fill="none"></rect></clipPath></defs><rect fill="transparent" class="highcharts-background" x="0" y="0" width="1187" height="600" rx="0" ry="0"></rect><rect fill="none" class="highcharts-plot-background" x="81" y="67" width="1096" height="477"></rect><g class="highcharts-grid highcharts-xaxis-grid "><path fill="none" class="highcharts-grid-line" d="M 95.5 67 L 95.5 544" opacity="1"></path><path fill="none" class="highcharts-grid-line" d="M 173.5 67 L 173.5 544" opacity="1"></path><path fill="none" class="highcharts-grid-line" d="M 251.5 67 L 251.5 544" opacity="1"></path><path fill="none" class="highcharts-grid-line" d="M 330.5 67 L 330.5 544" opacity="1"></path><path fill="none" class="highcharts-grid-line" d="M 408.5 67 L 408.5 544" opacity="1"></path><path fill="none" class="highcharts-grid-line" d="M 487.5 67 L 487.5 544" opacity="1"></path><path fill="none" class="highcharts-grid-line" d="M 565.5 67 L 565.5 544" opacity="1"></path><path fill="none" class="highcharts-grid-line" d="M 644.5 67 L 644.5 544" opacity="1"></path><path fill="none" class="highcharts-grid-line" d="M 722.5 67 L 722.5 544" opacity="1"></path><path fill="none" class="highcharts-grid-line" d="M 801.5 67 L 801.5 544" opacity="1"></path><path fill="none" class="highcharts-grid-line" d="M 879.5 67 L 879.5 544" opacity="1"></path><path fill="none" class="highcharts-grid-line" d="M 957.5 67 L 957.5 544" opacity="1"></path><path fill="none" class="highcharts-grid-line" d="M 1036.5 67 L 1036.5 544" opacity="1"></path><path fill="none" class="highcharts-grid-line" d="M 1114.5 67 L 1114.5 544" opacity="1"></path></g><g class="highcharts-grid highcharts-yaxis-grid "><path fill="none" stroke="#e6e6e6" stroke-width="1" class="highcharts-grid-line" d="M 81 544.5 L 1177 544.5" opacity="1"></path><path fill="none" stroke="#e6e6e6" stroke-width="1" class="highcharts-grid-line" d="M 81 484.5 L 1177 484.5" opacity="1"></path><path fill="none" stroke="#e6e6e6" stroke-width="1" class="highcharts-grid-line" d="M 81 425.5 L 1177 425.5" opacity="1"></path><path fill="none" stroke="#e6e6e6" stroke-width="1" class="highcharts-grid-line" d="M 81 365.5 L 1177 365.5" opacity="1"></path><path fill="none" stroke="#e6e6e6" stroke-width="1" class="highcharts-grid-line" d="M 81 306.5 L 1177 306.5" opacity="1"></path><path fill="none" stroke="#e6e6e6" stroke-width="1" class="highcharts-grid-line" d="M 81 246.5 L 1177 246.5" opacity="1"></path><path fill="none" stroke="#e6e6e6" stroke-width="1" class="highcharts-grid-line" d="M 81 186.5 L 1177 186.5" opacity="1"></path><path fill="none" stroke="#e6e6e6" stroke-width="1" class="highcharts-grid-line" d="M 81 127.5 L 1177 127.5" opacity="1"></path><path fill="none" stroke="#e6e6e6" stroke-width="1" class="highcharts-grid-line" d="M 81 66.5 L 1177 66.5" opacity="1"></path></g><rect fill="none" class="highcharts-plot-border" x="81" y="67" width="1096" height="477"></rect><g class="highcharts-axis highcharts-xaxis "><path fill="none" class="highcharts-tick" stroke="#ccd6eb" stroke-width="1" d="M 95.5 544 L 95.5 554" opacity="1"></path><path fill="none" class="highcharts-tick" stroke="#ccd6eb" stroke-width="1" d="M 173.5 544 L 173.5 554" opacity="1"></path><path fill="none" class="highcharts-tick" stroke="#ccd6eb" stroke-width="1" d="M 251.5 544 L 251.5 554" opacity="1"></path><path fill="none" class="highcharts-tick" stroke="#ccd6eb" stroke-width="1" d="M 330.5 544 L 330.5 554" opacity="1"></path><path fill="none" class="highcharts-tick" stroke="#ccd6eb" stroke-width="1" d="M 408.5 544 L 408.5 554" opacity="1"></path><path fill="none" class="highcharts-tick" stroke="#ccd6eb" stroke-width="1" d="M 487.5 544 L 487.5 554" opacity="1"></path><path fill="none" class="highcharts-tick" stroke="#ccd6eb" stroke-width="1" d="M 565.5 544 L 565.5 554" opacity="1"></path><path fill="none" class="highcharts-tick" stroke="#ccd6eb" stroke-width="1" d="M 644.5 544 L 644.5 554" opacity="1"></path><path fill="none" class="highcharts-tick" stroke="#ccd6eb" stroke-width="1" d="M 722.5 544 L 722.5 554" opacity="1"></path><path fill="none" class="highcharts-tick" stroke="#ccd6eb" stroke-width="1" d="M 801.5 544 L 801.5 554" opacity="1"></path><path fill="none" class="highcharts-tick" stroke="#ccd6eb" stroke-width="1" d="M 879.5 544 L 879.5 554" opacity="1"></path><path fill="none" class="highcharts-tick" stroke="#ccd6eb" stroke-width="1" d="M 957.5 544 L 957.5 554" opacity="1"></path><path fill="none" class="highcharts-tick" stroke="#ccd6eb" stroke-width="1" d="M 1036.5 544 L 1036.5 554" opacity="1"></path><path fill="none" class="highcharts-tick" stroke="#ccd6eb" stroke-width="1" d="M 1114.5 544 L 1114.5 554" opacity="1"></path><text x="629" text-anchor="middle" transform="translate(0,0)" class="highcharts-axis-title" style="color:#666666;fill:#666666;" y="582">Year</text><path fill="none" class="highcharts-axis-line" stroke="#ccd6eb" stroke-width="1" d="M 81 544.5 L 1177 544.5"></path></g><g class="highcharts-axis highcharts-yaxis "><text x="25.296875" text-anchor="middle" transform="translate(0,0) rotate(270 25.296875 305.5)" class="highcharts-axis-title" style="color:#666666;fill:#666666;" y="305.5"><tspan>Annual Delta from Mean (°C)</tspan></text><path fill="none" class="highcharts-axis-line" d="M 81 67 L 81 544"></path></g><g class="highcharts-series-group"><g class="highcharts-series highcharts-series-0 highcharts-column-series highcharts-color-0 " transform="translate(81,67) scale(1 1)" width="477" height="1096" clip-path="url(#highcharts-5zkhapu-8)"><rect x="4.5" y="298.5" width="20" height="45" fill="#84B0F8" class="highcharts-point highcharts-negative highcharts-color-0" stroke="#ffffff" stroke-width="1"></rect><rect x="11.5" y="298.5" width="20" height="24" fill="#B5BCCF" class="highcharts-point highcharts-negative highcharts-color-0" stroke="#ffffff" stroke-width="1"></rect><rect x="19.5" y="298.5" width="20" height="19" fill="#C5BDBA" class="highcharts-point highcharts-negative highcharts-color-0" stroke="#ffffff" stroke-width="1"></rect><rect x="27.5" y="298.5" width="20" height="45" fill="#84B0F8" class="highcharts-point highcharts-negative highcharts-color-0" stroke="#ffffff" stroke-width="1"></rect><rect x="35.5" y="298.5" width="20" height="62" fill="#4D83DA" class="highcharts-point highcharts-negative highcharts-color-0" stroke="#ffffff" stroke-width="1"></rect><rect x="43.5" y="298.5" width="20" height="72" fill="#2C68C9" class="highcharts-point highcharts-negative highcharts-color-0" stroke="#ffffff" stroke-width="1"></rect><rect x="51.5" y="298.5" width="20" height="69" fill="#316CCC" class="highcharts-point highcharts-negative highcharts-color-0" stroke="#ffffff" stroke-width="1"></rect><rect x="59.5" y="298.5" width="20" height="76" fill="#2C68C9" class="highcharts-point highcharts-negative highcharts-color-0" stroke="#ffffff" stroke-width="1"></rect><rect x="66.5" y="298.5" width="20" height="45" fill="#84B0F8" class="highcharts-point highcharts-negative highcharts-color-0" stroke="#ffffff" stroke-width="1"></rect><rect x="74.5" y="298.5" width="20" height="24" fill="#B5BCCF" class="highcharts-point highcharts-negative highcharts-color-0" stroke="#ffffff" stroke-width="1"></rect><rect x="82.5" y="298.5" width="20" height="84" fill="#1B5AC0" class="highcharts-point highcharts-negative highcharts-color-0" stroke="#ffffff" stroke-width="1"></rect><rect x="90.5" y="298.5" width="20" height="55" fill="#5D90E3" class="highcharts-point highcharts-negative highcharts-color-0" stroke="#ffffff" stroke-width="1"></rect><rect x="98.5" y="298.5" width="20" height="60" fill="#588CE0" class="highcharts-point highcharts-negative highcharts-color-0" stroke="#ffffff" stroke-width="1"></rect><rect x="106.5" y="298.5" width="20" height="67" fill="#3771CF" class="highcharts-point highcharts-negative highcharts-color-0" stroke="#ffffff" stroke-width="1"></rect><rect x="113.5" y="298.5" width="20" height="69" fill="#316CCC" class="highcharts-point highcharts-negative highcharts-color-0" stroke="#ffffff" stroke-width="1"></rect><rect x="121.5" y="298.5" width="20" height="48" fill="#73A2EF" class="highcharts-point highcharts-negative highcharts-color-0" stroke="#ffffff" stroke-width="1"></rect><rect x="129.5" y="298.5" width="20" height="34" fill="#9CBBF0" class="highcharts-point highcharts-negative highcharts-color-0" stroke="#ffffff" stroke-width="1"></rect><rect x="137.5" y="298.5" width="20" height="24" fill="#B5BCCF" class="highcharts-point highcharts-negative highcharts-color-0" stroke="#ffffff" stroke-width="1"></rect><rect x="145.5" y="298.5" width="20" height="65" fill="#477ED8" class="highcharts-point highcharts-negative highcharts-color-0" stroke="#ffffff" stroke-width="1"></rect><rect x="153.5" y="298.5" width="20" height="36" fill="#93BBFB" class="highcharts-point highcharts-negative highcharts-color-0" stroke="#ffffff" stroke-width="1"></rect><rect x="160.5" y="298.5" width="20" height="19" fill="#C5BDBA" class="highcharts-point highcharts-negative highcharts-color-0" stroke="#ffffff" stroke-width="1"></rect><rect x="168.5" y="298.5" width="20" height="34" fill="#9CBBF0" class="highcharts-point highcharts-negative highcharts-color-0" stroke="#ffffff" stroke-width="1"></rect><rect x="176.5" y="298.5" width="20" height="65" fill="#477ED8" class="highcharts-point highcharts-negative highcharts-color-0" stroke="#ffffff" stroke-width="1"></rect><rect x="184.5" y="298.5" width="20" height="84" fill="#1B5AC0" class="highcharts-point highcharts-negative highcharts-color-0" stroke="#ffffff" stroke-width="1"></rect><rect x="192.5" y="298.5" width="20" height="103" fill="#0548B4" class="highcharts-point highcharts-negative highcharts-color-0" stroke="#ffffff" stroke-width="1"></rect><rect x="200.5" y="298.5" width="20" height="65" fill="#477ED8" class="highcharts-point highcharts-negative highcharts-color-0" stroke="#ffffff" stroke-width="1"></rect><rect x="208.5" y="298.5" width="20" height="50" fill="#6899E9" class="highcharts-point highcharts-negative highcharts-color-0" stroke="#ffffff" stroke-width="1"></rect><rect x="215.5" y="298.5" width="20" height="93" fill="#1656BD" class="highcharts-point highcharts-negative highcharts-color-0" stroke="#ffffff" stroke-width="1"></rect><rect x="223.5" y="298.5" width="20" height="100" fill="#0B4DB7" class="highcharts-point highcharts-negative highcharts-color-0" stroke="#ffffff" stroke-width="1"></rect><rect x="231.5" y="298.5" width="20" height="110" fill="#0044B2" class="highcharts-point highcharts-negative highcharts-color-0" stroke="#ffffff" stroke-width="1"></rect><rect x="239.5" y="298.5" width="20" height="100" fill="#0B4DB7" class="highcharts-point highcharts-negative highcharts-color-0" stroke="#ffffff" stroke-width="1"></rect><rect x="247.5" y="298.5" width="20" height="105" fill="#0548B4" class="highcharts-point highcharts-negative highcharts-color-0" stroke="#ffffff" stroke-width="1"></rect><rect x="255.5" y="298.5" width="20" height="81" fill="#215FC3" class="highcharts-point highcharts-negative highcharts-color-0" stroke="#ffffff" stroke-width="1"></rect><rect x="262.5" y="298.5" width="20" height="79" fill="#2663C6" class="highcharts-point highcharts-negative highcharts-color-0" stroke="#ffffff" stroke-width="1"></rect><rect x="270.5" y="298.5" width="20" height="36" fill="#93BBFB" class="highcharts-point highcharts-negative highcharts-color-0" stroke="#ffffff" stroke-width="1"></rect><rect x="278.5" y="298.5" width="20" height="24" fill="#B5BCCF" class="highcharts-point highcharts-negative highcharts-color-0" stroke="#ffffff" stroke-width="1"></rect><rect x="286.5" y="298.5" width="20" height="79" fill="#2663C6" class="highcharts-point highcharts-negative highcharts-color-0" stroke="#ffffff" stroke-width="1"></rect><rect x="294.5" y="298.5" width="20" height="93" fill="#1656BD" class="highcharts-point highcharts-negative highcharts-color-0" stroke="#ffffff" stroke-width="1"></rect><rect x="302.5" y="298.5" width="20" height="60" fill="#588CE0" class="highcharts-point highcharts-negative highcharts-color-0" stroke="#ffffff" stroke-width="1"></rect><rect x="310.5" y="298.5" width="20" height="53" fill="#6395E6" class="highcharts-point highcharts-negative highcharts-color-0" stroke="#ffffff" stroke-width="1"></rect><rect x="317.5" y="298.5" width="20" height="60" fill="#588CE0" class="highcharts-point highcharts-negative highcharts-color-0" stroke="#ffffff" stroke-width="1"></rect><rect x="325.5" y="298.5" width="20" height="48" fill="#73A2EF" class="highcharts-point highcharts-negative highcharts-color-0" stroke="#ffffff" stroke-width="1"></rect><rect x="333.5" y="298.5" width="20" height="62" fill="#4D83DA" class="highcharts-point highcharts-negative highcharts-color-0" stroke="#ffffff" stroke-width="1"></rect><rect x="341.5" y="298.5" width="20" height="55" fill="#5D90E3" class="highcharts-point highcharts-negative highcharts-color-0" stroke="#ffffff" stroke-width="1"></rect><rect x="349.5" y="298.5" width="20" height="65" fill="#477ED8" class="highcharts-point highcharts-negative highcharts-color-0" stroke="#ffffff" stroke-width="1"></rect><rect x="357.5" y="298.5" width="20" height="45" fill="#84B0F8" class="highcharts-point highcharts-negative highcharts-color-0" stroke="#ffffff" stroke-width="1"></rect><rect x="364.5" y="298.5" width="20" height="22" fill="#BDBDC5" class="highcharts-point highcharts-negative highcharts-color-0" stroke="#ffffff" stroke-width="1"></rect><rect x="372.5" y="298.5" width="20" height="48" fill="#73A2EF" class="highcharts-point highcharts-negative highcharts-color-0" stroke="#ffffff" stroke-width="1"></rect><rect x="380.5" y="298.5" width="20" height="50" fill="#6899E9" class="highcharts-point highcharts-negative highcharts-color-0" stroke="#ffffff" stroke-width="1"></rect><rect x="388.5" y="298.5" width="20" height="84" fill="#1B5AC0" class="highcharts-point highcharts-negative highcharts-color-0" stroke="#ffffff" stroke-width="1"></rect><rect x="396.5" y="298.5" width="20" height="31" fill="#A0BBEB" class="highcharts-point highcharts-negative highcharts-color-0" stroke="#ffffff" stroke-width="1"></rect><rect x="404.5" y="298.5" width="20" height="19" fill="#C5BDBA" class="highcharts-point highcharts-negative highcharts-color-0" stroke="#ffffff" stroke-width="1"></rect><rect x="411.5" y="298.5" width="20" height="36" fill="#93BBFB" class="highcharts-point highcharts-negative highcharts-color-0" stroke="#ffffff" stroke-width="1"></rect><rect x="419.5" y="298.5" width="20" height="65" fill="#477ED8" class="highcharts-point highcharts-negative highcharts-color-0" stroke="#ffffff" stroke-width="1"></rect><rect x="427.5" y="298.5" width="20" height="29" fill="#A4BCE5" class="highcharts-point highcharts-negative highcharts-color-0" stroke="#ffffff" stroke-width="1"></rect><rect x="435.5" y="298.5" width="20" height="43" fill="#89B4FB" class="highcharts-point highcharts-negative highcharts-color-0" stroke="#ffffff" stroke-width="1"></rect><rect x="443.5" y="298.5" width="20" height="34" fill="#9CBBF0" class="highcharts-point highcharts-negative highcharts-color-0" stroke="#ffffff" stroke-width="1"></rect><rect x="451.5" y="298.5" width="20" height="3" fill="#E3BF94" class="highcharts-point highcharts-negative highcharts-color-0" stroke="#ffffff" stroke-width="1"></rect><rect x="459.5" y="298.5" width="20" height="3" fill="#E3BF94" class="highcharts-point highcharts-negative highcharts-color-0" stroke="#ffffff" stroke-width="1"></rect><rect x="466.5" y="298.5" width="20" height="5" fill="#DABF9F" class="highcharts-point highcharts-negative highcharts-color-0" stroke="#ffffff" stroke-width="1"></rect><rect x="474.5" y="277.5" width="20" height="21" fill="#FFBF6E" class="highcharts-point highcharts-color-0" stroke="#ffffff" stroke-width="1"></rect><rect x="482.5" y="267.5" width="20" height="31" fill="#FFB361" class="highcharts-point highcharts-color-0" stroke="#ffffff" stroke-width="1"></rect><rect x="490.5" y="274.5" width="20" height="24" fill="#FFBB6A" class="highcharts-point highcharts-color-0" stroke="#ffffff" stroke-width="1"></rect><rect x="498.5" y="265.5" width="20" height="33" fill="#FFAF5D" class="highcharts-point highcharts-color-0" stroke="#ffffff" stroke-width="1"></rect><rect x="506.5" y="236.5" width="20" height="62" fill="#FFA04C" class="highcharts-point highcharts-color-0" stroke="#ffffff" stroke-width="1"></rect><rect x="513.5" y="267.5" width="20" height="31" fill="#FFB361" class="highcharts-point highcharts-color-0" stroke="#ffffff" stroke-width="1"></rect><rect x="521.5" y="298.5" width="20" height="7" fill="#D6BEA4" class="highcharts-point highcharts-negative highcharts-color-0" stroke="#ffffff" stroke-width="1"></rect><rect x="529.5" y="298.5" width="20" height="10" fill="#D2BEA9" class="highcharts-point highcharts-negative highcharts-color-0" stroke="#ffffff" stroke-width="1"></rect><rect x="537.5" y="298.5" width="20" height="22" fill="#BDBDC5" class="highcharts-point highcharts-negative highcharts-color-0" stroke="#ffffff" stroke-width="1"></rect><rect x="545.5" y="298.5" width="20" height="22" fill="#BDBDC5" class="highcharts-point highcharts-negative highcharts-color-0" stroke="#ffffff" stroke-width="1"></rect><rect x="553.5" y="298.5" width="20" height="43" fill="#89B4FB" class="highcharts-point highcharts-negative highcharts-color-0" stroke="#ffffff" stroke-width="1"></rect><rect x="561.5" y="298.5" width="20" height="17" fill="#CABEB4" class="highcharts-point highcharts-negative highcharts-color-0" stroke="#ffffff" stroke-width="1"></rect><rect x="568.5" y="296.5" width="20" height="2" fill="#E7BF8E" class="highcharts-point highcharts-color-0" stroke="#ffffff" stroke-width="1"></rect><rect x="576.5" y="279.5" width="20" height="19" fill="#FFBF6E" class="highcharts-point highcharts-color-0" stroke="#ffffff" stroke-width="1"></rect><rect x="584.5" y="298.5" width="20" height="29" fill="#A4BCE5" class="highcharts-point highcharts-negative highcharts-color-0" stroke="#ffffff" stroke-width="1"></rect><rect x="592.5" y="298.5" width="20" height="34" fill="#9CBBF0" class="highcharts-point highcharts-negative highcharts-color-0" stroke="#ffffff" stroke-width="1"></rect><rect x="600.5" y="298.5" width="20" height="45" fill="#84B0F8" class="highcharts-point highcharts-negative highcharts-color-0" stroke="#ffffff" stroke-width="1"></rect><rect x="608.5" y="289.5" width="20" height="9" fill="#EFC083" class="highcharts-point highcharts-color-0" stroke="#ffffff" stroke-width="1"></rect><rect x="615.5" y="284.5" width="20" height="14" fill="#F8C079" class="highcharts-point highcharts-color-0" stroke="#ffffff" stroke-width="1"></rect><rect x="623.5" y="291.5" width="20" height="7" fill="#EFC083" class="highcharts-point highcharts-color-0" stroke="#ffffff" stroke-width="1"></rect><rect x="631.5" y="298.5" width="20" height="7" fill="#D6BEA4" class="highcharts-point highcharts-negative highcharts-color-0" stroke="#ffffff" stroke-width="1"></rect><rect x="639.5" y="286.5" width="20" height="12" fill="#F3C07E" class="highcharts-point highcharts-color-0" stroke="#ffffff" stroke-width="1"></rect><rect x="647.5" y="293.5" width="20" height="5" fill="#E7BF8E" class="highcharts-point highcharts-color-0" stroke="#ffffff" stroke-width="1"></rect><rect x="655.5" y="284.5" width="20" height="14" fill="#F8C079" class="highcharts-point highcharts-color-0" stroke="#ffffff" stroke-width="1"></rect><rect x="663.5" y="298.5" width="20" height="50" fill="#6899E9" class="highcharts-point highcharts-negative highcharts-color-0" stroke="#ffffff" stroke-width="1"></rect><rect x="670.5" y="298.5" width="20" height="24" fill="#B5BCCF" class="highcharts-point highcharts-negative highcharts-color-0" stroke="#ffffff" stroke-width="1"></rect><rect x="678.5" y="298.5" width="20" height="12" fill="#CEBEAF" class="highcharts-point highcharts-negative highcharts-color-0" stroke="#ffffff" stroke-width="1"></rect><rect x="686.5" y="298.5" width="20" height="7" fill="#D6BEA4" class="highcharts-point highcharts-negative highcharts-color-0" stroke="#ffffff" stroke-width="1"></rect><rect x="694.5" y="298.5" width="20" height="17" fill="#CABEB4" class="highcharts-point highcharts-negative highcharts-color-0" stroke="#ffffff" stroke-width="1"></rect><rect x="702.5" y="284.5" width="20" height="14" fill="#F8C079" class="highcharts-point highcharts-color-0" stroke="#ffffff" stroke-width="1"></rect><rect x="710.5" y="291.5" width="20" height="7" fill="#EFC083" class="highcharts-point highcharts-color-0" stroke="#ffffff" stroke-width="1"></rect><rect x="717.5" y="298.5" width="20" height="22" fill="#BDBDC5" class="highcharts-point highcharts-negative highcharts-color-0" stroke="#ffffff" stroke-width="1"></rect><rect x="725.5" y="296.5" width="20" height="2" fill="#E7BF8E" class="highcharts-point highcharts-color-0" stroke="#ffffff" stroke-width="1"></rect><rect x="733.5" y="262.5" width="20" height="36" fill="#FFAF5D" class="highcharts-point highcharts-color-0" stroke="#ffffff" stroke-width="1"></rect><rect x="741.5" y="298.5" width="20" height="19" fill="#C5BDBA" class="highcharts-point highcharts-negative highcharts-color-0" stroke="#ffffff" stroke-width="1"></rect><rect x="749.5" y="298.5" width="20" height="3" fill="#E3BF94" class="highcharts-point highcharts-negative highcharts-color-0" stroke="#ffffff" stroke-width="1"></rect><rect x="757.5" y="298.5" width="20" height="26" fill="#A8BCE0" class="highcharts-point highcharts-negative highcharts-color-0" stroke="#ffffff" stroke-width="1"></rect><rect x="764.5" y="255.5" width="20" height="43" fill="#FFA755" class="highcharts-point highcharts-color-0" stroke="#ffffff" stroke-width="1"></rect><rect x="772.5" y="281.5" width="20" height="17" fill="#FCC073" class="highcharts-point highcharts-color-0" stroke="#ffffff" stroke-width="1"></rect><rect x="780.5" y="258.5" width="20" height="40" fill="#FFAB59" class="highcharts-point highcharts-color-0" stroke="#ffffff" stroke-width="1"></rect><rect x="788.5" y="231.5" width="20" height="67" fill="#FF9C48" class="highcharts-point highcharts-color-0" stroke="#ffffff" stroke-width="1"></rect><rect x="796.5" y="219.5" width="20" height="79" fill="#FF943F" class="highcharts-point highcharts-color-0" stroke="#ffffff" stroke-width="1"></rect><rect x="804.5" y="267.5" width="20" height="31" fill="#FFB361" class="highcharts-point highcharts-color-0" stroke="#ffffff" stroke-width="1"></rect><rect x="812.5" y="224.5" width="20" height="74" fill="#FF9844" class="highcharts-point highcharts-color-0" stroke="#ffffff" stroke-width="1"></rect><rect x="819.5" y="260.5" width="20" height="38" fill="#FFAB59" class="highcharts-point highcharts-color-0" stroke="#ffffff" stroke-width="1"></rect><rect x="827.5" y="270.5" width="20" height="28" fill="#FFBB6A" class="highcharts-point highcharts-color-0" stroke="#ffffff" stroke-width="1"></rect><rect x="835.5" y="253.5" width="20" height="45" fill="#FFA450" class="highcharts-point highcharts-color-0" stroke="#ffffff" stroke-width="1"></rect><rect x="843.5" y="217.5" width="20" height="81" fill="#FF903B" class="highcharts-point highcharts-color-0" stroke="#ffffff" stroke-width="1"></rect><rect x="851.5" y="203.5" width="20" height="95" fill="#FF8C37" class="highcharts-point highcharts-color-0" stroke="#ffffff" stroke-width="1"></rect><rect x="859.5" y="229.5" width="20" height="69" fill="#FF9844" class="highcharts-point highcharts-color-0" stroke="#ffffff" stroke-width="1"></rect><rect x="866.5" y="193.5" width="20" height="105" fill="#FF842E" class="highcharts-point highcharts-color-0" stroke="#ffffff" stroke-width="1"></rect><rect x="874.5" y="198.5" width="20" height="100" fill="#FF842E" class="highcharts-point highcharts-color-0" stroke="#ffffff" stroke-width="1"></rect><rect x="882.5" y="243.5" width="20" height="55" fill="#FFA450" class="highcharts-point highcharts-color-0" stroke="#ffffff" stroke-width="1"></rect><rect x="890.5" y="241.5" width="20" height="57" fill="#FFA04C" class="highcharts-point highcharts-color-0" stroke="#ffffff" stroke-width="1"></rect><rect x="898.5" y="222.5" width="20" height="76" fill="#FF943F" class="highcharts-point highcharts-color-0" stroke="#ffffff" stroke-width="1"></rect><rect x="906.5" y="188.5" width="20" height="110" fill="#FF802A" class="highcharts-point highcharts-color-0" stroke="#ffffff" stroke-width="1"></rect><rect x="914.5" y="217.5" width="20" height="81" fill="#FF903B" class="highcharts-point highcharts-color-0" stroke="#ffffff" stroke-width="1"></rect><rect x="921.5" y="186.5" width="20" height="112" fill="#FF7C26" class="highcharts-point highcharts-color-0" stroke="#ffffff" stroke-width="1"></rect><rect x="929.5" y="148.5" width="20" height="150" fill="#FF6811" class="highcharts-point highcharts-color-0" stroke="#ffffff" stroke-width="1"></rect><rect x="937.5" y="198.5" width="20" height="100" fill="#FF842E" class="highcharts-point highcharts-color-0" stroke="#ffffff" stroke-width="1"></rect><rect x="945.5" y="198.5" width="20" height="100" fill="#FF842E" class="highcharts-point highcharts-color-0" stroke="#ffffff" stroke-width="1"></rect><rect x="953.5" y="169.5" width="20" height="129" fill="#FF7822" class="highcharts-point highcharts-color-0" stroke="#ffffff" stroke-width="1"></rect><rect x="961.5" y="148.5" width="20" height="150" fill="#FF6811" class="highcharts-point highcharts-color-0" stroke="#ffffff" stroke-width="1"></rect><rect x="968.5" y="150.5" width="20" height="148" fill="#FF741D" class="highcharts-point highcharts-color-0" stroke="#ffffff" stroke-width="1"></rect><rect x="976.5" y="169.5" width="20" height="129" fill="#FF7822" class="highcharts-point highcharts-color-0" stroke="#ffffff" stroke-width="1"></rect><rect x="984.5" y="134.5" width="20" height="164" fill="#FF6008" class="highcharts-point highcharts-color-0" stroke="#ffffff" stroke-width="1"></rect><rect x="992.5" y="148.5" width="20" height="150" fill="#FF6811" class="highcharts-point highcharts-color-0" stroke="#ffffff" stroke-width="1"></rect><rect x="1000.5" y="141.5" width="20" height="157" fill="#FF6008" class="highcharts-point highcharts-color-0" stroke="#ffffff" stroke-width="1"></rect><rect x="1008.5" y="172.5" width="20" height="126" fill="#FF7C26" class="highcharts-point highcharts-color-0" stroke="#ffffff" stroke-width="1"></rect><rect x="1015.5" y="145.5" width="20" height="153" fill="#FF6811" class="highcharts-point highcharts-color-0" stroke="#ffffff" stroke-width="1"></rect><rect x="1023.5" y="126.5" width="20" height="172" fill="#FF5C04" class="highcharts-point highcharts-color-0" stroke="#ffffff" stroke-width="1"></rect><rect x="1031.5" y="155.5" width="20" height="143" fill="#FF741D" class="highcharts-point highcharts-color-0" stroke="#ffffff" stroke-width="1"></rect><rect x="1039.5" y="148.5" width="20" height="150" fill="#FF6811" class="highcharts-point highcharts-color-0" stroke="#ffffff" stroke-width="1"></rect><rect x="1047.5" y="143.5" width="20" height="155" fill="#FF640C" class="highcharts-point highcharts-color-0" stroke="#ffffff" stroke-width="1"></rect><rect x="1055.5" y="122.5" width="20" height="176" fill="#FF5C04" class="highcharts-point highcharts-color-0" stroke="#ffffff" stroke-width="1"></rect><rect x="1063.5" y="91.5" width="20" height="207" fill="#FF5900" class="highcharts-point highcharts-color-0" stroke="#ffffff" stroke-width="1"></rect><rect x="1070.5" y="62.5" width="20" height="236" fill="#FF5900" class="highcharts-point highcharts-color-0" stroke="#ffffff" stroke-width="1"></rect></g><g class="highcharts-markers highcharts-series-0 highcharts-column-series highcharts-color-0 " transform="translate(81,67) scale(1 1)" width="477" height="1096" clip-path="none"></g></g><text x="594" text-anchor="middle" class="highcharts-title" style="color:#333333;font-size:18px;fill:#333333;width:1123px;" y="24"><tspan>Global Temperature Data (1870-2016)</tspan><tspan x="594" dy="21">Delta From 1951-1980 Avg</tspan></text><g class="highcharts-legend"><rect fill="none" class="highcharts-legend-box" rx="0" ry="0" x="0" y="0" width="8" height="8" visibility="hidden"></rect><g><g></g></g></g><g class="highcharts-axis-labels highcharts-xaxis-labels "><text x="95.59032350415039" style="color:#666666;cursor:default;font-size:11px;fill:#666666;width:74px;text-overflow:clip;" text-anchor="middle" transform="translate(0,0)" y="563" opacity="1"><tspan>1880</tspan></text><text x="174.03292298883417" style="color:#666666;cursor:default;font-size:11px;fill:#666666;width:74px;text-overflow:clip;" text-anchor="middle" transform="translate(0,0)" y="563" opacity="1"><tspan>1890</tspan></text><text x="252.47552247351794" style="color:#666666;cursor:default;font-size:11px;fill:#666666;width:74px;text-overflow:clip;" text-anchor="middle" transform="translate(0,0)" y="563" opacity="1"><tspan>1900</tspan></text><text x="330.9181219582017" style="color:#666666;cursor:default;font-size:11px;fill:#666666;width:74px;text-overflow:clip;" text-anchor="middle" transform="translate(0,0)" y="563" opacity="1"><tspan>1910</tspan></text><text x="409.36072144288545" style="color:#666666;cursor:default;font-size:11px;fill:#666666;width:74px;text-overflow:clip;" text-anchor="middle" transform="translate(0,0)" y="563" opacity="1"><tspan>1920</tspan></text><text x="487.8033209275692" style="color:#666666;cursor:default;font-size:11px;fill:#666666;width:74px;text-overflow:clip;" text-anchor="middle" transform="translate(0,0)" y="563" opacity="1"><tspan>1930</tspan></text><text x="566.245920412253" style="color:#666666;cursor:default;font-size:11px;fill:#666666;width:74px;text-overflow:clip;" text-anchor="middle" transform="translate(0,0)" y="563" opacity="1"><tspan>1940</tspan></text><text x="644.6885198969368" style="color:#666666;cursor:default;font-size:11px;fill:#666666;width:74px;text-overflow:clip;" text-anchor="middle" transform="translate(0,0)" y="563" opacity="1"><tspan>1950</tspan></text><text x="723.1311193816205" style="color:#666666;cursor:default;font-size:11px;fill:#666666;width:74px;text-overflow:clip;" text-anchor="middle" transform="translate(0,0)" y="563" opacity="1"><tspan>1960</tspan></text><text x="801.5737188663043" style="color:#666666;cursor:default;font-size:11px;fill:#666666;width:74px;text-overflow:clip;" text-anchor="middle" transform="translate(0,0)" y="563" opacity="1"><tspan>1970</tspan></text><text x="880.0163183509881" style="color:#666666;cursor:default;font-size:11px;fill:#666666;width:74px;text-overflow:clip;" text-anchor="middle" transform="translate(0,0)" y="563" opacity="1"><tspan>1980</tspan></text><text x="958.4589178356719" style="color:#666666;cursor:default;font-size:11px;fill:#666666;width:74px;text-overflow:clip;" text-anchor="middle" transform="translate(0,0)" y="563" opacity="1"><tspan>1990</tspan></text><text x="1036.9015173203557" style="color:#666666;cursor:default;font-size:11px;fill:#666666;width:74px;text-overflow:clip;" text-anchor="middle" transform="translate(0,0)" y="563" opacity="1"><tspan>2000</tspan></text><text x="1115.3441168050394" style="color:#666666;cursor:default;font-size:11px;fill:#666666;width:74px;text-overflow:clip;" text-anchor="middle" transform="translate(0,0)" y="563" opacity="1"><tspan>2010</tspan></text></g><g class="highcharts-axis-labels highcharts-yaxis-labels "><text x="66" style="color:#666666;cursor:default;font-size:11px;fill:#666666;width:382px;text-overflow:clip;" text-anchor="end" transform="translate(0,0)" y="549" opacity="1"><tspan>-0.75</tspan></text><text x="66" style="color:#666666;cursor:default;font-size:11px;fill:#666666;width:382px;text-overflow:clip;" text-anchor="end" transform="translate(0,0)" y="489" opacity="1"><tspan>-0.5</tspan></text><text x="66" style="color:#666666;cursor:default;font-size:11px;fill:#666666;width:382px;text-overflow:clip;" text-anchor="end" transform="translate(0,0)" y="429" opacity="1"><tspan>-0.25</tspan></text><text x="66" style="color:#666666;cursor:default;font-size:11px;fill:#666666;width:382px;text-overflow:clip;" text-anchor="end" transform="translate(0,0)" y="370" opacity="1"><tspan>0</tspan></text><text x="66" style="color:#666666;cursor:default;font-size:11px;fill:#666666;width:382px;text-overflow:clip;" text-anchor="end" transform="translate(0,0)" y="310" opacity="1"><tspan>0.25</tspan></text><text x="66" style="color:#666666;cursor:default;font-size:11px;fill:#666666;width:382px;text-overflow:clip;" text-anchor="end" transform="translate(0,0)" y="250" opacity="1"><tspan>0.5</tspan></text><text x="66" style="color:#666666;cursor:default;font-size:11px;fill:#666666;width:382px;text-overflow:clip;" text-anchor="end" transform="translate(0,0)" y="191" opacity="1"><tspan>0.75</tspan></text><text x="66" style="color:#666666;cursor:default;font-size:11px;fill:#666666;width:382px;text-overflow:clip;" text-anchor="end" transform="translate(0,0)" y="131" opacity="1"><tspan>1</tspan></text><text x="66" style="color:#666666;cursor:default;font-size:11px;fill:#666666;width:382px;text-overflow:clip;" text-anchor="end" transform="translate(0,0)" y="72" opacity="1"><tspan>1.25</tspan></text></g><g class="highcharts-annotations"></g><g class="highcharts-annotations-group-0" clip-path="url(#highcharts-5zkhapu-9)"></g><text x="1177" class="highcharts-credits" text-anchor="end" style="cursor:pointer;color:#999999;font-size:9px;fill:#999999;" y="595"><tspan>Source: http://climate.nasa.gov/vital-signs/global-temperature/</tspan></text></svg>